<?xml version="1.0" encoding="UTF-8"?>
<svg width="512" height="512" viewBox="0 0 512 512" fill="none" xmlns="http://www.w3.org/2000/svg">
  <rect width="512" height="512" rx="100" fill="#4F46E5"/>
  <path d="M256 124C196.8 124 148 172.8 148 232C148 291.2 196.8 340 256 340C315.2 340 364 291.2 364 232C364 172.8 315.2 124 256 124ZM256 316C210.4 316 172 277.6 172 232C172 186.4 210.4 148 256 148C301.6 148 340 186.4 340 232C340 277.6 301.6 316 256 316Z" fill="white"/>
  <path d="M256 172C245.6 172 236 181.6 236 192C236 202.4 245.6 212 256 212C266.4 212 276 202.4 276 192C276 181.6 266.4 172 256 172Z" fill="white"/>
  <path d="M256 224C249.6 224 244 229.6 244 236V284C244 290.4 249.6 296 256 296C262.4 296 268 290.4 268 284V236C268 229.6 262.4 224 256 224Z" fill="white"/>
  <path d="M148 380H364C372.8 380 380 372.8 380 364C380 355.2 372.8 348 364 348H148C139.2 348 132 355.2 132 364C132 372.8 139.2 380 148 380Z" fill="white"/>
  <path d="M148 412H300C308.8 412 316 404.8 316 396C316 387.2 308.8 380 300 380H148C139.2 380 132 387.2 132 396C132 404.8 139.2 412 148 412Z" fill="white"/>
</svg>

